<mxfile host="app.diagrams.net" modified="2024-04-16T12:04:48.141Z" agent="Mozilla/5.0 (Windows NT 10.0; Win64; x64) AppleWebKit/537.36 (KHTML, like Gecko) Chrome/123.0.0.0 Safari/537.36" etag="HoGLyWK0McaO3VY7CG3l" version="24.2.5" type="github">
  <diagram id="07fea595-8f29-1299-0266-81d95cde20df" name="Page-1">
    <mxGraphModel dx="1434" dy="-81" grid="1" gridSize="10" guides="1" tooltips="1" connect="1" arrows="1" fold="1" page="1" pageScale="1" pageWidth="1169" pageHeight="827" background="#ffffff" math="0" shadow="0">
      <root>
        <mxCell id="0" />
        <mxCell id="1" parent="0" />
        <mxCell id="SglfwwHXvNLSPvmOc2Lm-236" value="&lt;font style=&quot;font-size: 16px;&quot; color=&quot;#23497d&quot;&gt;输入&lt;/font&gt;" style="swimlane;whiteSpace=wrap;fillColor=none;swimlaneFillColor=#BAC8D3;fontColor=#EEEEEE;fontFamily=Tahoma;html=1;strokeColor=none;opacity=50;labelBackgroundColor=none;" parent="1" vertex="1">
          <mxGeometry x="111" y="1080" width="120" height="313" as="geometry">
            <mxRectangle x="20" y="20" width="80" height="23" as="alternateBounds" />
          </mxGeometry>
        </mxCell>
        <mxCell id="SglfwwHXvNLSPvmOc2Lm-496" value="&lt;font color=&quot;#23497d&quot;&gt;&lt;span style=&quot;font-size: 14px;&quot;&gt;&lt;b&gt;DNA&lt;/b&gt;&lt;/span&gt;&lt;/font&gt;" style="rounded=0;whiteSpace=wrap;html=1;strokeColor=none;fontColor=#1D3557;fillColor=none;align=center;" parent="SglfwwHXvNLSPvmOc2Lm-236" vertex="1">
          <mxGeometry x="10.380000000000004" y="90.75" width="99.25" height="60" as="geometry" />
        </mxCell>
        <mxCell id="SglfwwHXvNLSPvmOc2Lm-497" value="" style="sketch=0;points=[[0.015,0.015,0],[0.985,0.015,0],[0.985,0.985,0],[0.015,0.985,0],[0.25,0,0],[0.5,0,0],[0.75,0,0],[1,0.25,0],[1,0.5,0],[1,0.75,0],[0.75,1,0],[0.5,1,0],[0.25,1,0],[0,0.75,0],[0,0.5,0],[0,0.25,0]];verticalLabelPosition=bottom;verticalAlign=top;aspect=fixed;align=center;pointerEvents=1;shape=mxgraph.cisco19.rect;prIcon=cisco_dna_center;fillColor=none;strokeColor=#457B9D;fontFamily=Helvetica;fontSize=11;fontColor=none;labelBackgroundColor=none;noLabel=1;strokeWidth=1;" parent="SglfwwHXvNLSPvmOc2Lm-236" vertex="1">
          <mxGeometry x="35.010000000000005" y="140.63" width="50" height="50" as="geometry" />
        </mxCell>
        <mxCell id="SglfwwHXvNLSPvmOc2Lm-240" value="&lt;font style=&quot;font-size: 16px;&quot; color=&quot;#23497d&quot;&gt;嵌入层&lt;/font&gt;" style="swimlane;whiteSpace=wrap;fillColor=none;swimlaneFillColor=#eef1f4;fontColor=#EEEEEE;fontFamily=Tahoma;html=1;strokeColor=none;opacity=50;labelBackgroundColor=none;" parent="1" vertex="1">
          <mxGeometry x="232" y="1080" width="185" height="313" as="geometry">
            <mxRectangle x="20" y="20" width="80" height="23" as="alternateBounds" />
          </mxGeometry>
        </mxCell>
        <mxCell id="SglfwwHXvNLSPvmOc2Lm-248" value="" style="childLayout=tableLayout;recursiveResize=0;shadow=0;fillColor=none;strokeColor=#457B9D;fontColor=#1D3557;strokeWidth=2;" parent="SglfwwHXvNLSPvmOc2Lm-240" vertex="1">
          <mxGeometry x="48.75" y="120.5" width="87.5" height="90.25" as="geometry" />
        </mxCell>
        <mxCell id="SglfwwHXvNLSPvmOc2Lm-249" value="" style="shape=tableRow;horizontal=0;startSize=0;swimlaneHead=0;swimlaneBody=0;top=0;left=0;bottom=0;right=0;dropTarget=0;collapsible=0;recursiveResize=0;expand=0;fontStyle=0;fillColor=none;strokeColor=inherit;fontColor=#1D3557;" parent="SglfwwHXvNLSPvmOc2Lm-248" vertex="1">
          <mxGeometry width="87.5" height="31" as="geometry" />
        </mxCell>
        <mxCell id="SglfwwHXvNLSPvmOc2Lm-250" value="" style="connectable=0;recursiveResize=0;strokeColor=inherit;fillColor=none;align=center;whiteSpace=wrap;html=1;fontColor=#1D3557;" parent="SglfwwHXvNLSPvmOc2Lm-249" vertex="1">
          <mxGeometry width="29" height="31" as="geometry">
            <mxRectangle width="29" height="31" as="alternateBounds" />
          </mxGeometry>
        </mxCell>
        <mxCell id="SglfwwHXvNLSPvmOc2Lm-251" value="" style="connectable=0;recursiveResize=0;strokeColor=inherit;fillColor=none;align=center;whiteSpace=wrap;html=1;fontColor=#1D3557;" parent="SglfwwHXvNLSPvmOc2Lm-249" vertex="1">
          <mxGeometry x="29" width="30" height="31" as="geometry">
            <mxRectangle width="30" height="31" as="alternateBounds" />
          </mxGeometry>
        </mxCell>
        <mxCell id="SglfwwHXvNLSPvmOc2Lm-252" value="" style="connectable=0;recursiveResize=0;strokeColor=inherit;fillColor=none;align=center;whiteSpace=wrap;html=1;fontColor=#1D3557;" parent="SglfwwHXvNLSPvmOc2Lm-249" vertex="1">
          <mxGeometry x="59" width="29" height="31" as="geometry">
            <mxRectangle width="29" height="31" as="alternateBounds" />
          </mxGeometry>
        </mxCell>
        <mxCell id="SglfwwHXvNLSPvmOc2Lm-253" style="shape=tableRow;horizontal=0;startSize=0;swimlaneHead=0;swimlaneBody=0;top=0;left=0;bottom=0;right=0;dropTarget=0;collapsible=0;recursiveResize=0;expand=0;fontStyle=0;fillColor=none;strokeColor=inherit;fontColor=#1D3557;" parent="SglfwwHXvNLSPvmOc2Lm-248" vertex="1">
          <mxGeometry y="31" width="87.5" height="29" as="geometry" />
        </mxCell>
        <mxCell id="SglfwwHXvNLSPvmOc2Lm-254" value="" style="connectable=0;recursiveResize=0;strokeColor=inherit;fillColor=none;align=center;whiteSpace=wrap;html=1;fontColor=#1D3557;" parent="SglfwwHXvNLSPvmOc2Lm-253" vertex="1">
          <mxGeometry width="29" height="29" as="geometry">
            <mxRectangle width="29" height="29" as="alternateBounds" />
          </mxGeometry>
        </mxCell>
        <mxCell id="SglfwwHXvNLSPvmOc2Lm-255" value="" style="connectable=0;recursiveResize=0;strokeColor=inherit;fillColor=none;align=center;whiteSpace=wrap;html=1;fontColor=#1D3557;" parent="SglfwwHXvNLSPvmOc2Lm-253" vertex="1">
          <mxGeometry x="29" width="30" height="29" as="geometry">
            <mxRectangle width="30" height="29" as="alternateBounds" />
          </mxGeometry>
        </mxCell>
        <mxCell id="SglfwwHXvNLSPvmOc2Lm-256" value="" style="connectable=0;recursiveResize=0;strokeColor=inherit;fillColor=none;align=center;whiteSpace=wrap;html=1;fontColor=#1D3557;" parent="SglfwwHXvNLSPvmOc2Lm-253" vertex="1">
          <mxGeometry x="59" width="29" height="29" as="geometry">
            <mxRectangle width="29" height="29" as="alternateBounds" />
          </mxGeometry>
        </mxCell>
        <mxCell id="SglfwwHXvNLSPvmOc2Lm-257" style="shape=tableRow;horizontal=0;startSize=0;swimlaneHead=0;swimlaneBody=0;top=0;left=0;bottom=0;right=0;dropTarget=0;collapsible=0;recursiveResize=0;expand=0;fontStyle=0;fillColor=none;strokeColor=inherit;fontColor=#1D3557;" parent="SglfwwHXvNLSPvmOc2Lm-248" vertex="1">
          <mxGeometry y="60" width="87.5" height="30" as="geometry" />
        </mxCell>
        <mxCell id="SglfwwHXvNLSPvmOc2Lm-258" value="" style="connectable=0;recursiveResize=0;strokeColor=inherit;fillColor=none;align=center;whiteSpace=wrap;html=1;fontColor=#1D3557;" parent="SglfwwHXvNLSPvmOc2Lm-257" vertex="1">
          <mxGeometry width="29" height="30" as="geometry">
            <mxRectangle width="29" height="30" as="alternateBounds" />
          </mxGeometry>
        </mxCell>
        <mxCell id="SglfwwHXvNLSPvmOc2Lm-259" value="" style="connectable=0;recursiveResize=0;strokeColor=inherit;fillColor=none;align=center;whiteSpace=wrap;html=1;fontColor=#1D3557;" parent="SglfwwHXvNLSPvmOc2Lm-257" vertex="1">
          <mxGeometry x="29" width="30" height="30" as="geometry">
            <mxRectangle width="30" height="30" as="alternateBounds" />
          </mxGeometry>
        </mxCell>
        <mxCell id="SglfwwHXvNLSPvmOc2Lm-260" value="" style="connectable=0;recursiveResize=0;strokeColor=inherit;fillColor=none;align=center;whiteSpace=wrap;html=1;fontColor=#1D3557;" parent="SglfwwHXvNLSPvmOc2Lm-257" vertex="1">
          <mxGeometry x="59" width="29" height="30" as="geometry">
            <mxRectangle width="29" height="30" as="alternateBounds" />
          </mxGeometry>
        </mxCell>
        <mxCell id="SglfwwHXvNLSPvmOc2Lm-263" value="&lt;font color=&quot;#23497d&quot; style=&quot;font-size: 14px;&quot;&gt;&lt;b style=&quot;&quot;&gt;Embedding Matrix&lt;/b&gt;&lt;/font&gt;&lt;div style=&quot;font-size: 14px;&quot;&gt;&lt;font color=&quot;#23497d&quot; style=&quot;font-size: 14px;&quot;&gt;&lt;b style=&quot;&quot;&gt;3-mer&lt;/b&gt;&lt;/font&gt;&lt;/div&gt;&lt;div style=&quot;font-size: 14px;&quot;&gt;&lt;font color=&quot;#23497d&quot; style=&quot;font-size: 14px;&quot;&gt;&lt;b style=&quot;&quot;&gt;&amp;nbsp;dim = 100&lt;/b&gt;&lt;/font&gt;&lt;/div&gt;" style="rounded=0;whiteSpace=wrap;html=1;strokeColor=none;fontColor=#1D3557;fillColor=none;align=center;" parent="SglfwwHXvNLSPvmOc2Lm-240" vertex="1">
          <mxGeometry x="18.75" y="56.5" width="147.5" height="60" as="geometry" />
        </mxCell>
        <mxCell id="SglfwwHXvNLSPvmOc2Lm-261" style="edgeStyle=orthogonalEdgeStyle;rounded=1;orthogonalLoop=1;jettySize=auto;html=1;entryX=0;entryY=0.5;entryDx=0;entryDy=0;strokeColor=#457B9D;fontColor=#1D3557;fillColor=#A8DADC;curved=0;strokeWidth=3;endArrow=blockThin;endFill=1;labelBackgroundColor=none;" parent="1" target="SglfwwHXvNLSPvmOc2Lm-253" edge="1">
          <mxGeometry relative="1" as="geometry">
            <mxPoint x="196" y="1245.8333333333333" as="sourcePoint" />
          </mxGeometry>
        </mxCell>
        <mxCell id="SglfwwHXvNLSPvmOc2Lm-501" value="Encoding&lt;div&gt;One-Hot&lt;/div&gt;" style="edgeLabel;html=1;align=center;verticalAlign=middle;resizable=0;points=[];strokeColor=#457B9D;fontFamily=Helvetica;fontSize=11;fontColor=#457B9D;labelBackgroundColor=none;fillColor=#A8DADC;" parent="SglfwwHXvNLSPvmOc2Lm-261" vertex="1" connectable="0">
          <mxGeometry x="-0.1699" y="-1" relative="1" as="geometry">
            <mxPoint x="5" y="-16" as="offset" />
          </mxGeometry>
        </mxCell>
        <mxCell id="SglfwwHXvNLSPvmOc2Lm-333" value="&lt;font style=&quot;font-size: 16px;&quot; color=&quot;#23497d&quot;&gt;卷积层&lt;/font&gt;" style="swimlane;whiteSpace=wrap;fillColor=none;swimlaneFillColor=#BAC8D3;fontColor=#EEEEEE;fontFamily=Tahoma;html=1;strokeColor=none;opacity=50;labelBackgroundColor=none;" parent="1" vertex="1">
          <mxGeometry x="416" y="1080" width="220" height="313" as="geometry">
            <mxRectangle x="20" y="20" width="80" height="23" as="alternateBounds" />
          </mxGeometry>
        </mxCell>
        <mxCell id="SglfwwHXvNLSPvmOc2Lm-303" value="" style="group" parent="SglfwwHXvNLSPvmOc2Lm-333" vertex="1" connectable="0">
          <mxGeometry x="20" y="56.5" width="80" height="240" as="geometry" />
        </mxCell>
        <mxCell id="SglfwwHXvNLSPvmOc2Lm-287" value="" style="group" parent="SglfwwHXvNLSPvmOc2Lm-303" vertex="1" connectable="0">
          <mxGeometry width="42.35044997353096" height="240" as="geometry" />
        </mxCell>
        <mxCell id="SglfwwHXvNLSPvmOc2Lm-281" value="" style="rounded=0;whiteSpace=wrap;html=1;strokeColor=#457B9D;fontFamily=Helvetica;fontSize=11;fontColor=#1D3557;labelBackgroundColor=default;fillColor=#A8DADC;" parent="SglfwwHXvNLSPvmOc2Lm-287" vertex="1">
          <mxGeometry width="18.8224222104582" height="169.41176470588235" as="geometry" />
        </mxCell>
        <mxCell id="SglfwwHXvNLSPvmOc2Lm-282" value="" style="rounded=0;whiteSpace=wrap;html=1;strokeColor=#457B9D;fontFamily=Helvetica;fontSize=11;fontColor=#1D3557;labelBackgroundColor=default;fillColor=#457B9D;" parent="SglfwwHXvNLSPvmOc2Lm-287" vertex="1">
          <mxGeometry x="4.70560555261455" y="14.117647058823527" width="18.8224222104582" height="169.41176470588235" as="geometry" />
        </mxCell>
        <mxCell id="SglfwwHXvNLSPvmOc2Lm-283" value="" style="rounded=0;whiteSpace=wrap;html=1;strokeColor=#457B9D;fontFamily=Helvetica;fontSize=11;fontColor=#1D3557;labelBackgroundColor=default;fillColor=#A8DADC;" parent="SglfwwHXvNLSPvmOc2Lm-287" vertex="1">
          <mxGeometry x="9.4112111052291" y="28.235294117647054" width="18.8224222104582" height="169.41176470588235" as="geometry" />
        </mxCell>
        <mxCell id="SglfwwHXvNLSPvmOc2Lm-284" value="" style="rounded=0;whiteSpace=wrap;html=1;strokeColor=#457B9D;fontFamily=Helvetica;fontSize=11;fontColor=#1D3557;labelBackgroundColor=default;fillColor=#457B9D;" parent="SglfwwHXvNLSPvmOc2Lm-287" vertex="1">
          <mxGeometry x="14.116816657843652" y="42.35294117647059" width="18.8224222104582" height="169.41176470588235" as="geometry" />
        </mxCell>
        <mxCell id="SglfwwHXvNLSPvmOc2Lm-285" value="" style="rounded=0;whiteSpace=wrap;html=1;strokeColor=#457B9D;fontFamily=Helvetica;fontSize=11;fontColor=#1D3557;labelBackgroundColor=default;fillColor=#A8DADC;" parent="SglfwwHXvNLSPvmOc2Lm-287" vertex="1">
          <mxGeometry x="18.8224222104582" y="56.47058823529411" width="18.8224222104582" height="169.41176470588235" as="geometry" />
        </mxCell>
        <mxCell id="SglfwwHXvNLSPvmOc2Lm-286" value="" style="rounded=0;whiteSpace=wrap;html=1;strokeColor=#457B9D;fontFamily=Helvetica;fontSize=11;fontColor=#1D3557;labelBackgroundColor=default;fillColor=#457B9D;" parent="SglfwwHXvNLSPvmOc2Lm-287" vertex="1">
          <mxGeometry x="23.52802776307275" y="70.58823529411764" width="18.8224222104582" height="169.41176470588235" as="geometry" />
        </mxCell>
        <mxCell id="SglfwwHXvNLSPvmOc2Lm-291" value="" style="group" parent="SglfwwHXvNLSPvmOc2Lm-303" vertex="1" connectable="0">
          <mxGeometry x="48.40885830245278" y="38.5" width="30.591141697547194" height="130" as="geometry" />
        </mxCell>
        <mxCell id="SglfwwHXvNLSPvmOc2Lm-290" value="" style="rounded=0;whiteSpace=wrap;html=1;strokeColor=#457B9D;fontFamily=Helvetica;fontSize=11;fontColor=#1D3557;labelBackgroundColor=default;fillColor=#457B9D;" parent="SglfwwHXvNLSPvmOc2Lm-291" vertex="1">
          <mxGeometry x="2" width="18.82477501323452" height="104" as="geometry" />
        </mxCell>
        <mxCell id="SglfwwHXvNLSPvmOc2Lm-276" value="" style="rounded=0;whiteSpace=wrap;html=1;strokeColor=#457B9D;fontFamily=Helvetica;fontSize=11;fontColor=#1D3557;labelBackgroundColor=default;fillColor=#A8DADC;" parent="SglfwwHXvNLSPvmOc2Lm-291" vertex="1">
          <mxGeometry x="6.707958355390872" y="13" width="18.82477501323452" height="104" as="geometry" />
        </mxCell>
        <mxCell id="SglfwwHXvNLSPvmOc2Lm-277" value="" style="rounded=0;whiteSpace=wrap;html=1;strokeColor=#457B9D;fontFamily=Helvetica;fontSize=11;fontColor=#1D3557;labelBackgroundColor=default;fillColor=#457B9D;" parent="SglfwwHXvNLSPvmOc2Lm-291" vertex="1">
          <mxGeometry x="11.766366684312663" y="26" width="18.82477501323452" height="104" as="geometry" />
        </mxCell>
        <mxCell id="SglfwwHXvNLSPvmOc2Lm-304" value="" style="group" parent="SglfwwHXvNLSPvmOc2Lm-333" vertex="1" connectable="0">
          <mxGeometry x="120" y="56.5" width="80" height="240" as="geometry" />
        </mxCell>
        <mxCell id="SglfwwHXvNLSPvmOc2Lm-305" value="" style="group" parent="SglfwwHXvNLSPvmOc2Lm-304" vertex="1" connectable="0">
          <mxGeometry width="42.35044997353096" height="240" as="geometry" />
        </mxCell>
        <mxCell id="SglfwwHXvNLSPvmOc2Lm-306" value="" style="rounded=0;whiteSpace=wrap;html=1;strokeColor=#457B9D;fontFamily=Helvetica;fontSize=11;fontColor=#1D3557;labelBackgroundColor=default;fillColor=#A8DADC;" parent="SglfwwHXvNLSPvmOc2Lm-305" vertex="1">
          <mxGeometry width="18.8224222104582" height="169.41176470588235" as="geometry" />
        </mxCell>
        <mxCell id="SglfwwHXvNLSPvmOc2Lm-307" value="" style="rounded=0;whiteSpace=wrap;html=1;strokeColor=#457B9D;fontFamily=Helvetica;fontSize=11;fontColor=#1D3557;labelBackgroundColor=default;fillColor=#457B9D;" parent="SglfwwHXvNLSPvmOc2Lm-305" vertex="1">
          <mxGeometry x="4.70560555261455" y="14.117647058823527" width="18.8224222104582" height="169.41176470588235" as="geometry" />
        </mxCell>
        <mxCell id="SglfwwHXvNLSPvmOc2Lm-308" value="" style="rounded=0;whiteSpace=wrap;html=1;strokeColor=#457B9D;fontFamily=Helvetica;fontSize=11;fontColor=#1D3557;labelBackgroundColor=default;fillColor=#A8DADC;" parent="SglfwwHXvNLSPvmOc2Lm-305" vertex="1">
          <mxGeometry x="9.4112111052291" y="28.235294117647054" width="18.8224222104582" height="169.41176470588235" as="geometry" />
        </mxCell>
        <mxCell id="SglfwwHXvNLSPvmOc2Lm-309" value="" style="rounded=0;whiteSpace=wrap;html=1;strokeColor=#457B9D;fontFamily=Helvetica;fontSize=11;fontColor=#1D3557;labelBackgroundColor=default;fillColor=#457B9D;" parent="SglfwwHXvNLSPvmOc2Lm-305" vertex="1">
          <mxGeometry x="14.116816657843652" y="42.35294117647059" width="18.8224222104582" height="169.41176470588235" as="geometry" />
        </mxCell>
        <mxCell id="SglfwwHXvNLSPvmOc2Lm-310" value="" style="rounded=0;whiteSpace=wrap;html=1;strokeColor=#457B9D;fontFamily=Helvetica;fontSize=11;fontColor=#1D3557;labelBackgroundColor=default;fillColor=#A8DADC;" parent="SglfwwHXvNLSPvmOc2Lm-305" vertex="1">
          <mxGeometry x="18.8224222104582" y="56.47058823529411" width="18.8224222104582" height="169.41176470588235" as="geometry" />
        </mxCell>
        <mxCell id="SglfwwHXvNLSPvmOc2Lm-311" value="" style="rounded=0;whiteSpace=wrap;html=1;strokeColor=#457B9D;fontFamily=Helvetica;fontSize=11;fontColor=#1D3557;labelBackgroundColor=default;fillColor=#457B9D;" parent="SglfwwHXvNLSPvmOc2Lm-305" vertex="1">
          <mxGeometry x="23.52802776307275" y="70.58823529411764" width="18.8224222104582" height="169.41176470588235" as="geometry" />
        </mxCell>
        <mxCell id="SglfwwHXvNLSPvmOc2Lm-505" value="" style="group" parent="SglfwwHXvNLSPvmOc2Lm-333" vertex="1" connectable="0">
          <mxGeometry x="83.99885830245273" y="143" width="30.591141697547194" height="130" as="geometry" />
        </mxCell>
        <mxCell id="SglfwwHXvNLSPvmOc2Lm-506" value="" style="rounded=0;whiteSpace=wrap;html=1;strokeColor=#457B9D;fontFamily=Helvetica;fontSize=11;fontColor=#A8DADC;labelBackgroundColor=default;fillColor=#A8DADC;" parent="SglfwwHXvNLSPvmOc2Lm-505" vertex="1">
          <mxGeometry y="-10" width="18.82477501323452" height="104" as="geometry" />
        </mxCell>
        <mxCell id="SglfwwHXvNLSPvmOc2Lm-507" value="" style="rounded=0;whiteSpace=wrap;html=1;strokeColor=#457B9D;fontFamily=Helvetica;fontSize=11;fontColor=#1D3557;labelBackgroundColor=default;fillColor=#457B9D;" parent="SglfwwHXvNLSPvmOc2Lm-505" vertex="1">
          <mxGeometry x="4.707958355390872" y="3" width="18.82477501323452" height="104" as="geometry" />
        </mxCell>
        <mxCell id="SglfwwHXvNLSPvmOc2Lm-508" value="" style="rounded=0;whiteSpace=wrap;html=1;strokeColor=#457B9D;fontFamily=Helvetica;fontSize=11;fontColor=#1D3557;labelBackgroundColor=default;fillColor=#A8DADC;" parent="SglfwwHXvNLSPvmOc2Lm-505" vertex="1">
          <mxGeometry x="9.766366684312663" y="16" width="18.82477501323452" height="104" as="geometry" />
        </mxCell>
        <mxCell id="SglfwwHXvNLSPvmOc2Lm-337" style="edgeStyle=orthogonalEdgeStyle;curved=0;rounded=1;orthogonalLoop=1;jettySize=auto;html=1;entryX=-0.213;entryY=0.647;entryDx=0;entryDy=0;entryPerimeter=0;strokeColor=#457B9D;strokeWidth=3;align=center;verticalAlign=middle;fontFamily=Helvetica;fontSize=11;fontColor=#1D3557;labelBackgroundColor=default;endArrow=blockThin;endFill=1;fillColor=#A8DADC;" parent="1" source="SglfwwHXvNLSPvmOc2Lm-253" target="SglfwwHXvNLSPvmOc2Lm-281" edge="1">
          <mxGeometry relative="1" as="geometry" />
        </mxCell>
        <mxCell id="SglfwwHXvNLSPvmOc2Lm-350" value="&lt;font style=&quot;font-size: 16px;&quot; color=&quot;#23497d&quot;&gt;Bi-LSTM &amp;amp; Attention&lt;/font&gt;" style="swimlane;whiteSpace=wrap;fillColor=none;swimlaneFillColor=#eef1f4;fontColor=#EEEEEE;fontFamily=Tahoma;html=1;strokeColor=none;opacity=50;labelBackgroundColor=none;" parent="1" vertex="1">
          <mxGeometry x="636" y="1080" width="205" height="313" as="geometry">
            <mxRectangle x="20" y="20" width="80" height="23" as="alternateBounds" />
          </mxGeometry>
        </mxCell>
        <mxCell id="SglfwwHXvNLSPvmOc2Lm-401" style="edgeStyle=orthogonalEdgeStyle;curved=0;rounded=1;orthogonalLoop=1;jettySize=auto;html=1;strokeColor=#457B9D;strokeWidth=1;align=center;verticalAlign=middle;fontFamily=Helvetica;fontSize=11;fontColor=#1D3557;labelBackgroundColor=default;endArrow=blockThin;endFill=1;fillColor=#A8DADC;" parent="SglfwwHXvNLSPvmOc2Lm-350" source="SglfwwHXvNLSPvmOc2Lm-338" edge="1">
          <mxGeometry relative="1" as="geometry">
            <mxPoint x="111.5" y="66.5" as="targetPoint" />
          </mxGeometry>
        </mxCell>
        <mxCell id="SglfwwHXvNLSPvmOc2Lm-338" value="&lt;font&gt;&lt;b&gt;Att-LSTM&lt;/b&gt;&lt;/font&gt;" style="rounded=0;whiteSpace=wrap;html=1;strokeColor=#457B9D;fontFamily=Helvetica;fontSize=11;fontColor=#FFFFFF;labelBackgroundColor=none;fillColor=#457B9D;" parent="SglfwwHXvNLSPvmOc2Lm-350" vertex="1">
          <mxGeometry x="19" y="51.5" width="70" height="30" as="geometry" />
        </mxCell>
        <mxCell id="SglfwwHXvNLSPvmOc2Lm-403" style="edgeStyle=orthogonalEdgeStyle;curved=0;rounded=1;orthogonalLoop=1;jettySize=auto;html=1;strokeColor=#457B9D;strokeWidth=1;align=center;verticalAlign=middle;fontFamily=Helvetica;fontSize=11;fontColor=#1D3557;labelBackgroundColor=default;endArrow=blockThin;endFill=1;fillColor=#A8DADC;" parent="SglfwwHXvNLSPvmOc2Lm-350" source="SglfwwHXvNLSPvmOc2Lm-339" edge="1">
          <mxGeometry relative="1" as="geometry">
            <mxPoint x="111.5" y="116.5" as="targetPoint" />
          </mxGeometry>
        </mxCell>
        <mxCell id="SglfwwHXvNLSPvmOc2Lm-339" value="&lt;font&gt;&lt;b&gt;Att-LSTM&lt;/b&gt;&lt;/font&gt;" style="rounded=0;whiteSpace=wrap;html=1;strokeColor=#457B9D;fontFamily=Helvetica;fontSize=11;fontColor=#FFFFFF;labelBackgroundColor=none;fillColor=#457B9D;" parent="SglfwwHXvNLSPvmOc2Lm-350" vertex="1">
          <mxGeometry x="19" y="101.5" width="70" height="30" as="geometry" />
        </mxCell>
        <mxCell id="SglfwwHXvNLSPvmOc2Lm-404" style="edgeStyle=orthogonalEdgeStyle;curved=0;rounded=1;orthogonalLoop=1;jettySize=auto;html=1;strokeColor=#457B9D;strokeWidth=1;align=center;verticalAlign=middle;fontFamily=Helvetica;fontSize=11;fontColor=#1D3557;labelBackgroundColor=default;endArrow=blockThin;endFill=1;fillColor=#A8DADC;" parent="SglfwwHXvNLSPvmOc2Lm-350" source="SglfwwHXvNLSPvmOc2Lm-340" edge="1">
          <mxGeometry relative="1" as="geometry">
            <mxPoint x="111.5" y="166.5" as="targetPoint" />
          </mxGeometry>
        </mxCell>
        <mxCell id="SglfwwHXvNLSPvmOc2Lm-340" value="&lt;font&gt;&lt;b&gt;Att-LSTM&lt;/b&gt;&lt;/font&gt;" style="rounded=0;whiteSpace=wrap;html=1;strokeColor=#457B9D;fontFamily=Helvetica;fontSize=11;fontColor=#FFFFFF;labelBackgroundColor=none;fillColor=#457B9D;" parent="SglfwwHXvNLSPvmOc2Lm-350" vertex="1">
          <mxGeometry x="19" y="151.5" width="70" height="30" as="geometry" />
        </mxCell>
        <mxCell id="SglfwwHXvNLSPvmOc2Lm-405" style="edgeStyle=orthogonalEdgeStyle;curved=0;rounded=1;orthogonalLoop=1;jettySize=auto;html=1;strokeColor=#457B9D;strokeWidth=1;align=center;verticalAlign=middle;fontFamily=Helvetica;fontSize=11;fontColor=#1D3557;labelBackgroundColor=default;endArrow=blockThin;endFill=1;fillColor=#A8DADC;" parent="SglfwwHXvNLSPvmOc2Lm-350" source="SglfwwHXvNLSPvmOc2Lm-341" edge="1">
          <mxGeometry relative="1" as="geometry">
            <mxPoint x="111.5" y="216.5" as="targetPoint" />
          </mxGeometry>
        </mxCell>
        <mxCell id="SglfwwHXvNLSPvmOc2Lm-341" value="&lt;font&gt;&lt;b&gt;Att-LSTM&lt;/b&gt;&lt;/font&gt;" style="rounded=0;whiteSpace=wrap;html=1;strokeColor=#457B9D;fontFamily=Helvetica;fontSize=11;fontColor=#FFFFFF;labelBackgroundColor=none;fillColor=#457B9D;" parent="SglfwwHXvNLSPvmOc2Lm-350" vertex="1">
          <mxGeometry x="19" y="201.5" width="70" height="30" as="geometry" />
        </mxCell>
        <mxCell id="SglfwwHXvNLSPvmOc2Lm-406" style="edgeStyle=orthogonalEdgeStyle;curved=0;rounded=1;orthogonalLoop=1;jettySize=auto;html=1;strokeColor=#457B9D;strokeWidth=1;align=center;verticalAlign=middle;fontFamily=Helvetica;fontSize=11;fontColor=#1D3557;labelBackgroundColor=default;endArrow=blockThin;endFill=1;fillColor=#A8DADC;" parent="SglfwwHXvNLSPvmOc2Lm-350" source="SglfwwHXvNLSPvmOc2Lm-342" edge="1">
          <mxGeometry relative="1" as="geometry">
            <mxPoint x="111.5" y="266.5" as="targetPoint" />
          </mxGeometry>
        </mxCell>
        <mxCell id="SglfwwHXvNLSPvmOc2Lm-342" value="&lt;font&gt;&lt;b&gt;Att-LSTM&lt;/b&gt;&lt;/font&gt;" style="rounded=0;whiteSpace=wrap;html=1;strokeColor=#457B9D;fontFamily=Helvetica;fontSize=11;fontColor=#FFFFFF;labelBackgroundColor=none;fillColor=#457B9D;" parent="SglfwwHXvNLSPvmOc2Lm-350" vertex="1">
          <mxGeometry x="19" y="251.5" width="70" height="30" as="geometry" />
        </mxCell>
        <mxCell id="SglfwwHXvNLSPvmOc2Lm-372" value="" style="group" parent="SglfwwHXvNLSPvmOc2Lm-350" vertex="1" connectable="0">
          <mxGeometry x="54.50461538461525" y="81.5" width="2.395384615384728" height="20" as="geometry" />
        </mxCell>
        <mxCell id="SglfwwHXvNLSPvmOc2Lm-370" style="edgeStyle=orthogonalEdgeStyle;curved=0;rounded=1;orthogonalLoop=1;jettySize=auto;html=1;entryX=0.5;entryY=0;entryDx=0;entryDy=0;strokeColor=#457B9D;strokeWidth=1;align=center;verticalAlign=middle;fontFamily=Helvetica;fontSize=11;fontColor=#1D3557;labelBackgroundColor=default;endArrow=async;endFill=1;fillColor=#A8DADC;" parent="SglfwwHXvNLSPvmOc2Lm-372" edge="1">
          <mxGeometry relative="1" as="geometry">
            <mxPoint x="2.395384615384728" as="sourcePoint" />
            <mxPoint x="2.395384615384728" y="20" as="targetPoint" />
            <Array as="points">
              <mxPoint x="2.395384615384728" y="11" />
              <mxPoint x="2.395384615384728" y="11" />
            </Array>
          </mxGeometry>
        </mxCell>
        <mxCell id="SglfwwHXvNLSPvmOc2Lm-371" style="edgeStyle=orthogonalEdgeStyle;curved=0;rounded=1;orthogonalLoop=1;jettySize=auto;html=1;entryX=0.5;entryY=0;entryDx=0;entryDy=0;strokeColor=#457B9D;strokeWidth=1;align=center;verticalAlign=middle;fontFamily=Helvetica;fontSize=11;fontColor=#1D3557;labelBackgroundColor=default;endArrow=async;endFill=1;fillColor=#A8DADC;" parent="SglfwwHXvNLSPvmOc2Lm-372" edge="1">
          <mxGeometry relative="1" as="geometry">
            <mxPoint y="20" as="sourcePoint" />
            <mxPoint as="targetPoint" />
            <Array as="points">
              <mxPoint y="9" />
              <mxPoint y="9" />
            </Array>
          </mxGeometry>
        </mxCell>
        <mxCell id="SglfwwHXvNLSPvmOc2Lm-373" value="" style="group" parent="SglfwwHXvNLSPvmOc2Lm-350" vertex="1" connectable="0">
          <mxGeometry x="53.90461538461523" y="131.5" width="2.395384615384728" height="20" as="geometry" />
        </mxCell>
        <mxCell id="SglfwwHXvNLSPvmOc2Lm-374" style="edgeStyle=orthogonalEdgeStyle;curved=0;rounded=1;orthogonalLoop=1;jettySize=auto;html=1;entryX=0.5;entryY=0;entryDx=0;entryDy=0;strokeColor=#457B9D;strokeWidth=1;align=center;verticalAlign=middle;fontFamily=Helvetica;fontSize=11;fontColor=#1D3557;labelBackgroundColor=default;endArrow=async;endFill=1;fillColor=#A8DADC;" parent="SglfwwHXvNLSPvmOc2Lm-373" edge="1">
          <mxGeometry relative="1" as="geometry">
            <mxPoint x="2.395384615384728" as="sourcePoint" />
            <mxPoint x="2.395384615384728" y="20" as="targetPoint" />
            <Array as="points">
              <mxPoint x="2.395384615384728" y="11" />
              <mxPoint x="2.395384615384728" y="11" />
            </Array>
          </mxGeometry>
        </mxCell>
        <mxCell id="SglfwwHXvNLSPvmOc2Lm-375" style="edgeStyle=orthogonalEdgeStyle;curved=0;rounded=1;orthogonalLoop=1;jettySize=auto;html=1;entryX=0.5;entryY=0;entryDx=0;entryDy=0;strokeColor=#457B9D;strokeWidth=1;align=center;verticalAlign=middle;fontFamily=Helvetica;fontSize=11;fontColor=#1D3557;labelBackgroundColor=default;endArrow=async;endFill=1;fillColor=#A8DADC;" parent="SglfwwHXvNLSPvmOc2Lm-373" edge="1">
          <mxGeometry relative="1" as="geometry">
            <mxPoint y="20" as="sourcePoint" />
            <mxPoint as="targetPoint" />
            <Array as="points">
              <mxPoint y="9" />
              <mxPoint y="9" />
            </Array>
          </mxGeometry>
        </mxCell>
        <mxCell id="SglfwwHXvNLSPvmOc2Lm-377" value="" style="group" parent="SglfwwHXvNLSPvmOc2Lm-350" vertex="1" connectable="0">
          <mxGeometry x="53.90461538461523" y="181.5" width="2.395384615384728" height="20" as="geometry" />
        </mxCell>
        <mxCell id="SglfwwHXvNLSPvmOc2Lm-378" style="edgeStyle=orthogonalEdgeStyle;curved=0;rounded=1;orthogonalLoop=1;jettySize=auto;html=1;entryX=0.5;entryY=0;entryDx=0;entryDy=0;strokeColor=#457B9D;strokeWidth=1;align=center;verticalAlign=middle;fontFamily=Helvetica;fontSize=11;fontColor=#1D3557;labelBackgroundColor=default;endArrow=async;endFill=1;fillColor=#A8DADC;" parent="SglfwwHXvNLSPvmOc2Lm-377" edge="1">
          <mxGeometry relative="1" as="geometry">
            <mxPoint x="2.395384615384728" as="sourcePoint" />
            <mxPoint x="2.395384615384728" y="20" as="targetPoint" />
            <Array as="points">
              <mxPoint x="2.395384615384728" y="11" />
              <mxPoint x="2.395384615384728" y="11" />
            </Array>
          </mxGeometry>
        </mxCell>
        <mxCell id="SglfwwHXvNLSPvmOc2Lm-379" style="edgeStyle=orthogonalEdgeStyle;curved=0;rounded=1;orthogonalLoop=1;jettySize=auto;html=1;entryX=0.5;entryY=0;entryDx=0;entryDy=0;strokeColor=#457B9D;strokeWidth=1;align=center;verticalAlign=middle;fontFamily=Helvetica;fontSize=11;fontColor=#1D3557;labelBackgroundColor=default;endArrow=async;endFill=1;fillColor=#A8DADC;" parent="SglfwwHXvNLSPvmOc2Lm-377" edge="1">
          <mxGeometry relative="1" as="geometry">
            <mxPoint y="20" as="sourcePoint" />
            <mxPoint as="targetPoint" />
            <Array as="points">
              <mxPoint y="9" />
              <mxPoint y="9" />
            </Array>
          </mxGeometry>
        </mxCell>
        <mxCell id="SglfwwHXvNLSPvmOc2Lm-380" value="" style="group" parent="SglfwwHXvNLSPvmOc2Lm-350" vertex="1" connectable="0">
          <mxGeometry x="53.50461538461521" y="231.5" width="2.395384615384728" height="20" as="geometry" />
        </mxCell>
        <mxCell id="SglfwwHXvNLSPvmOc2Lm-381" style="edgeStyle=orthogonalEdgeStyle;curved=0;rounded=1;orthogonalLoop=1;jettySize=auto;html=1;entryX=0.5;entryY=0;entryDx=0;entryDy=0;strokeColor=#457B9D;strokeWidth=1;align=center;verticalAlign=middle;fontFamily=Helvetica;fontSize=11;fontColor=#1D3557;labelBackgroundColor=default;endArrow=async;endFill=1;fillColor=#A8DADC;" parent="SglfwwHXvNLSPvmOc2Lm-380" edge="1">
          <mxGeometry relative="1" as="geometry">
            <mxPoint x="2.395384615384728" as="sourcePoint" />
            <mxPoint x="2.395384615384728" y="20" as="targetPoint" />
            <Array as="points">
              <mxPoint x="2.395384615384728" y="11" />
              <mxPoint x="2.395384615384728" y="11" />
            </Array>
          </mxGeometry>
        </mxCell>
        <mxCell id="SglfwwHXvNLSPvmOc2Lm-382" style="edgeStyle=orthogonalEdgeStyle;curved=0;rounded=1;orthogonalLoop=1;jettySize=auto;html=1;entryX=0.5;entryY=0;entryDx=0;entryDy=0;strokeColor=#457B9D;strokeWidth=1;align=center;verticalAlign=middle;fontFamily=Helvetica;fontSize=11;fontColor=#1D3557;labelBackgroundColor=default;endArrow=async;endFill=1;fillColor=#A8DADC;" parent="SglfwwHXvNLSPvmOc2Lm-380" edge="1">
          <mxGeometry relative="1" as="geometry">
            <mxPoint y="20" as="sourcePoint" />
            <mxPoint as="targetPoint" />
            <Array as="points">
              <mxPoint y="9" />
              <mxPoint y="9" />
            </Array>
          </mxGeometry>
        </mxCell>
        <mxCell id="SglfwwHXvNLSPvmOc2Lm-384" value="&lt;font&gt;&lt;b&gt;Att-LSTM&lt;/b&gt;&lt;/font&gt;" style="rounded=0;whiteSpace=wrap;html=1;strokeColor=#457B9D;fontFamily=Helvetica;fontSize=11;fontColor=#FFFFFF;labelBackgroundColor=none;fillColor=#A8DADC;" parent="SglfwwHXvNLSPvmOc2Lm-350" vertex="1">
          <mxGeometry x="111.5" y="51.5" width="70" height="30" as="geometry" />
        </mxCell>
        <mxCell id="SglfwwHXvNLSPvmOc2Lm-385" value="&lt;font&gt;&lt;b&gt;Att-LSTM&lt;/b&gt;&lt;/font&gt;" style="rounded=0;whiteSpace=wrap;html=1;strokeColor=#457B9D;fontFamily=Helvetica;fontSize=11;fontColor=#FFFFFF;labelBackgroundColor=none;fillColor=#A8DADC;" parent="SglfwwHXvNLSPvmOc2Lm-350" vertex="1">
          <mxGeometry x="111.5" y="101.5" width="70" height="30" as="geometry" />
        </mxCell>
        <mxCell id="SglfwwHXvNLSPvmOc2Lm-386" value="&lt;font&gt;&lt;b&gt;Att-LSTM&lt;/b&gt;&lt;/font&gt;" style="rounded=0;whiteSpace=wrap;html=1;strokeColor=#457B9D;fontFamily=Helvetica;fontSize=11;fontColor=#FFFFFF;labelBackgroundColor=none;fillColor=#A8DADC;" parent="SglfwwHXvNLSPvmOc2Lm-350" vertex="1">
          <mxGeometry x="111.5" y="151.5" width="70" height="30" as="geometry" />
        </mxCell>
        <mxCell id="SglfwwHXvNLSPvmOc2Lm-387" value="&lt;font&gt;&lt;b&gt;Att-LSTM&lt;/b&gt;&lt;/font&gt;" style="rounded=0;whiteSpace=wrap;html=1;strokeColor=#457B9D;fontFamily=Helvetica;fontSize=11;fontColor=#FFFFFF;labelBackgroundColor=none;fillColor=#A8DADC;" parent="SglfwwHXvNLSPvmOc2Lm-350" vertex="1">
          <mxGeometry x="111.5" y="201.5" width="70" height="30" as="geometry" />
        </mxCell>
        <mxCell id="SglfwwHXvNLSPvmOc2Lm-388" value="&lt;font&gt;&lt;b&gt;Att-LSTM&lt;/b&gt;&lt;/font&gt;" style="rounded=0;whiteSpace=wrap;html=1;strokeColor=#457B9D;fontFamily=Helvetica;fontSize=11;fontColor=#FFFFFF;labelBackgroundColor=none;fillColor=#A8DADC;" parent="SglfwwHXvNLSPvmOc2Lm-350" vertex="1">
          <mxGeometry x="111.5" y="251.5" width="70" height="30" as="geometry" />
        </mxCell>
        <mxCell id="SglfwwHXvNLSPvmOc2Lm-389" value="" style="group" parent="SglfwwHXvNLSPvmOc2Lm-350" vertex="1" connectable="0">
          <mxGeometry x="147.00461538461525" y="81.5" width="2.395384615384728" height="20" as="geometry" />
        </mxCell>
        <mxCell id="SglfwwHXvNLSPvmOc2Lm-390" style="edgeStyle=orthogonalEdgeStyle;curved=0;rounded=1;orthogonalLoop=1;jettySize=auto;html=1;entryX=0.5;entryY=0;entryDx=0;entryDy=0;strokeColor=#457B9D;strokeWidth=1;align=center;verticalAlign=middle;fontFamily=Helvetica;fontSize=11;fontColor=#1D3557;labelBackgroundColor=default;endArrow=async;endFill=1;fillColor=#A8DADC;" parent="SglfwwHXvNLSPvmOc2Lm-389" edge="1">
          <mxGeometry relative="1" as="geometry">
            <mxPoint x="2.395384615384728" as="sourcePoint" />
            <mxPoint x="2.395384615384728" y="20" as="targetPoint" />
            <Array as="points">
              <mxPoint x="2.395384615384728" y="11" />
              <mxPoint x="2.395384615384728" y="11" />
            </Array>
          </mxGeometry>
        </mxCell>
        <mxCell id="SglfwwHXvNLSPvmOc2Lm-391" style="edgeStyle=orthogonalEdgeStyle;curved=0;rounded=1;orthogonalLoop=1;jettySize=auto;html=1;entryX=0.5;entryY=0;entryDx=0;entryDy=0;strokeColor=#457B9D;strokeWidth=1;align=center;verticalAlign=middle;fontFamily=Helvetica;fontSize=11;fontColor=#1D3557;labelBackgroundColor=default;endArrow=async;endFill=1;fillColor=#A8DADC;" parent="SglfwwHXvNLSPvmOc2Lm-389" edge="1">
          <mxGeometry relative="1" as="geometry">
            <mxPoint y="20" as="sourcePoint" />
            <mxPoint as="targetPoint" />
            <Array as="points">
              <mxPoint y="9" />
              <mxPoint y="9" />
            </Array>
          </mxGeometry>
        </mxCell>
        <mxCell id="SglfwwHXvNLSPvmOc2Lm-392" value="" style="group" parent="SglfwwHXvNLSPvmOc2Lm-350" vertex="1" connectable="0">
          <mxGeometry x="146.40461538461523" y="131.5" width="2.395384615384728" height="20" as="geometry" />
        </mxCell>
        <mxCell id="SglfwwHXvNLSPvmOc2Lm-393" style="edgeStyle=orthogonalEdgeStyle;curved=0;rounded=1;orthogonalLoop=1;jettySize=auto;html=1;entryX=0.5;entryY=0;entryDx=0;entryDy=0;strokeColor=#457B9D;strokeWidth=1;align=center;verticalAlign=middle;fontFamily=Helvetica;fontSize=11;fontColor=#1D3557;labelBackgroundColor=default;endArrow=async;endFill=1;fillColor=#A8DADC;" parent="SglfwwHXvNLSPvmOc2Lm-392" edge="1">
          <mxGeometry relative="1" as="geometry">
            <mxPoint x="2.395384615384728" as="sourcePoint" />
            <mxPoint x="2.395384615384728" y="20" as="targetPoint" />
            <Array as="points">
              <mxPoint x="2.395384615384728" y="11" />
              <mxPoint x="2.395384615384728" y="11" />
            </Array>
          </mxGeometry>
        </mxCell>
        <mxCell id="SglfwwHXvNLSPvmOc2Lm-394" style="edgeStyle=orthogonalEdgeStyle;curved=0;rounded=1;orthogonalLoop=1;jettySize=auto;html=1;entryX=0.5;entryY=0;entryDx=0;entryDy=0;strokeColor=#457B9D;strokeWidth=1;align=center;verticalAlign=middle;fontFamily=Helvetica;fontSize=11;fontColor=#1D3557;labelBackgroundColor=default;endArrow=async;endFill=1;fillColor=#A8DADC;" parent="SglfwwHXvNLSPvmOc2Lm-392" edge="1">
          <mxGeometry relative="1" as="geometry">
            <mxPoint y="20" as="sourcePoint" />
            <mxPoint as="targetPoint" />
            <Array as="points">
              <mxPoint y="9" />
              <mxPoint y="9" />
            </Array>
          </mxGeometry>
        </mxCell>
        <mxCell id="SglfwwHXvNLSPvmOc2Lm-395" value="" style="group" parent="SglfwwHXvNLSPvmOc2Lm-350" vertex="1" connectable="0">
          <mxGeometry x="146.40461538461523" y="181.5" width="2.395384615384728" height="20" as="geometry" />
        </mxCell>
        <mxCell id="SglfwwHXvNLSPvmOc2Lm-396" style="edgeStyle=orthogonalEdgeStyle;curved=0;rounded=1;orthogonalLoop=1;jettySize=auto;html=1;entryX=0.5;entryY=0;entryDx=0;entryDy=0;strokeColor=#457B9D;strokeWidth=1;align=center;verticalAlign=middle;fontFamily=Helvetica;fontSize=11;fontColor=#1D3557;labelBackgroundColor=default;endArrow=async;endFill=1;fillColor=#A8DADC;" parent="SglfwwHXvNLSPvmOc2Lm-395" edge="1">
          <mxGeometry relative="1" as="geometry">
            <mxPoint x="2.395384615384728" as="sourcePoint" />
            <mxPoint x="2.395384615384728" y="20" as="targetPoint" />
            <Array as="points">
              <mxPoint x="2.395384615384728" y="11" />
              <mxPoint x="2.395384615384728" y="11" />
            </Array>
          </mxGeometry>
        </mxCell>
        <mxCell id="SglfwwHXvNLSPvmOc2Lm-397" style="edgeStyle=orthogonalEdgeStyle;curved=0;rounded=1;orthogonalLoop=1;jettySize=auto;html=1;entryX=0.5;entryY=0;entryDx=0;entryDy=0;strokeColor=#457B9D;strokeWidth=1;align=center;verticalAlign=middle;fontFamily=Helvetica;fontSize=11;fontColor=#1D3557;labelBackgroundColor=default;endArrow=async;endFill=1;fillColor=#A8DADC;" parent="SglfwwHXvNLSPvmOc2Lm-395" edge="1">
          <mxGeometry relative="1" as="geometry">
            <mxPoint y="20" as="sourcePoint" />
            <mxPoint as="targetPoint" />
            <Array as="points">
              <mxPoint y="9" />
              <mxPoint y="9" />
            </Array>
          </mxGeometry>
        </mxCell>
        <mxCell id="SglfwwHXvNLSPvmOc2Lm-398" value="" style="group" parent="SglfwwHXvNLSPvmOc2Lm-350" vertex="1" connectable="0">
          <mxGeometry x="146.00461538461525" y="231.5" width="2.395384615384728" height="20" as="geometry" />
        </mxCell>
        <mxCell id="SglfwwHXvNLSPvmOc2Lm-399" style="edgeStyle=orthogonalEdgeStyle;curved=0;rounded=1;orthogonalLoop=1;jettySize=auto;html=1;entryX=0.5;entryY=0;entryDx=0;entryDy=0;strokeColor=#457B9D;strokeWidth=1;align=center;verticalAlign=middle;fontFamily=Helvetica;fontSize=11;fontColor=#1D3557;labelBackgroundColor=default;endArrow=async;endFill=1;fillColor=#A8DADC;" parent="SglfwwHXvNLSPvmOc2Lm-398" edge="1">
          <mxGeometry relative="1" as="geometry">
            <mxPoint x="2.395384615384728" as="sourcePoint" />
            <mxPoint x="2.395384615384728" y="20" as="targetPoint" />
            <Array as="points">
              <mxPoint x="2.395384615384728" y="11" />
              <mxPoint x="2.395384615384728" y="11" />
            </Array>
          </mxGeometry>
        </mxCell>
        <mxCell id="SglfwwHXvNLSPvmOc2Lm-400" style="edgeStyle=orthogonalEdgeStyle;curved=0;rounded=1;orthogonalLoop=1;jettySize=auto;html=1;entryX=0.5;entryY=0;entryDx=0;entryDy=0;strokeColor=#457B9D;strokeWidth=1;align=center;verticalAlign=middle;fontFamily=Helvetica;fontSize=11;fontColor=#1D3557;labelBackgroundColor=default;endArrow=async;endFill=1;fillColor=#A8DADC;" parent="SglfwwHXvNLSPvmOc2Lm-398" edge="1">
          <mxGeometry relative="1" as="geometry">
            <mxPoint y="20" as="sourcePoint" />
            <mxPoint as="targetPoint" />
            <Array as="points">
              <mxPoint y="9" />
              <mxPoint y="9" />
            </Array>
          </mxGeometry>
        </mxCell>
        <mxCell id="SglfwwHXvNLSPvmOc2Lm-408" style="edgeStyle=orthogonalEdgeStyle;curved=0;rounded=1;orthogonalLoop=1;jettySize=auto;html=1;entryX=-0.213;entryY=0.647;entryDx=0;entryDy=0;entryPerimeter=0;strokeColor=#457B9D;strokeWidth=3;align=center;verticalAlign=middle;fontFamily=Helvetica;fontSize=11;fontColor=#1D3557;labelBackgroundColor=default;endArrow=blockThin;endFill=1;fillColor=#A8DADC;" parent="SglfwwHXvNLSPvmOc2Lm-350" edge="1">
          <mxGeometry relative="1" as="geometry">
            <mxPoint x="-15.5" y="166.32999999999998" as="sourcePoint" />
            <mxPoint x="12.5" y="166.32999999999998" as="targetPoint" />
          </mxGeometry>
        </mxCell>
        <mxCell id="SglfwwHXvNLSPvmOc2Lm-423" value="&lt;font color=&quot;#23497d&quot;&gt;&lt;span style=&quot;font-size: 16px;&quot;&gt;输出层&lt;/span&gt;&lt;/font&gt;" style="swimlane;whiteSpace=wrap;fillColor=none;swimlaneFillColor=#BAC8D3;fontColor=#EEEEEE;fontFamily=Tahoma;html=1;strokeColor=none;opacity=50;labelBackgroundColor=none;" parent="1" vertex="1">
          <mxGeometry x="841" y="1080" width="159" height="313" as="geometry">
            <mxRectangle x="841" y="1080" width="80" height="23" as="alternateBounds" />
          </mxGeometry>
        </mxCell>
        <mxCell id="SglfwwHXvNLSPvmOc2Lm-450" value="" style="verticalLabelPosition=bottom;verticalAlign=top;html=1;shape=mxgraph.flowchart.on-page_reference;strokeColor=#457B9D;fontFamily=Helvetica;fontSize=11;fontColor=#1D3557;labelBackgroundColor=default;fillColor=#457B9D;" parent="SglfwwHXvNLSPvmOc2Lm-423" vertex="1">
          <mxGeometry x="24.5" y="47.5" width="40" height="38" as="geometry" />
        </mxCell>
        <mxCell id="SglfwwHXvNLSPvmOc2Lm-451" value="" style="verticalLabelPosition=bottom;verticalAlign=top;html=1;shape=mxgraph.flowchart.on-page_reference;strokeColor=#457B9D;fontFamily=Helvetica;fontSize=11;fontColor=#1D3557;labelBackgroundColor=default;fillColor=#457B9D;" parent="SglfwwHXvNLSPvmOc2Lm-423" vertex="1">
          <mxGeometry x="24.5" y="98.5" width="40" height="38" as="geometry" />
        </mxCell>
        <mxCell id="SglfwwHXvNLSPvmOc2Lm-452" value="" style="verticalLabelPosition=bottom;verticalAlign=top;html=1;shape=mxgraph.flowchart.on-page_reference;strokeColor=#457B9D;fontFamily=Helvetica;fontSize=11;fontColor=#1D3557;labelBackgroundColor=default;fillColor=#457B9D;" parent="SglfwwHXvNLSPvmOc2Lm-423" vertex="1">
          <mxGeometry x="24.5" y="148.5" width="40" height="38" as="geometry" />
        </mxCell>
        <mxCell id="SglfwwHXvNLSPvmOc2Lm-453" value="" style="verticalLabelPosition=bottom;verticalAlign=top;html=1;shape=mxgraph.flowchart.on-page_reference;strokeColor=#457B9D;fontFamily=Helvetica;fontSize=11;fontColor=#1D3557;labelBackgroundColor=default;fillColor=#457B9D;" parent="SglfwwHXvNLSPvmOc2Lm-423" vertex="1">
          <mxGeometry x="24.5" y="198.5" width="40" height="38" as="geometry" />
        </mxCell>
        <mxCell id="SglfwwHXvNLSPvmOc2Lm-454" value="" style="verticalLabelPosition=bottom;verticalAlign=top;html=1;shape=mxgraph.flowchart.on-page_reference;strokeColor=#457B9D;fontFamily=Helvetica;fontSize=11;fontColor=#1D3557;labelBackgroundColor=default;fillColor=#457B9D;" parent="SglfwwHXvNLSPvmOc2Lm-423" vertex="1">
          <mxGeometry x="24.5" y="248.5" width="40" height="38" as="geometry" />
        </mxCell>
        <mxCell id="SglfwwHXvNLSPvmOc2Lm-484" value="Ehancer" style="verticalLabelPosition=bottom;verticalAlign=top;html=1;shape=mxgraph.flowchart.on-page_reference;strokeColor=#457B9D;fontFamily=Helvetica;fontSize=10;fontColor=#1D3557;labelBackgroundColor=none;fillColor=#A8DADC;" parent="SglfwwHXvNLSPvmOc2Lm-423" vertex="1">
          <mxGeometry x="94.5" y="110.5" width="40" height="38" as="geometry" />
        </mxCell>
        <mxCell id="SglfwwHXvNLSPvmOc2Lm-485" value="Not&lt;div style=&quot;font-size: 10px;&quot;&gt;Ehancer&lt;/div&gt;" style="verticalLabelPosition=bottom;verticalAlign=top;html=1;shape=mxgraph.flowchart.on-page_reference;strokeColor=#457B9D;fontFamily=Helvetica;fontSize=10;fontColor=#1D3557;labelBackgroundColor=none;fillColor=#A8DADC;" parent="SglfwwHXvNLSPvmOc2Lm-423" vertex="1">
          <mxGeometry x="94.5" y="186.5" width="40" height="38" as="geometry" />
        </mxCell>
        <mxCell id="SglfwwHXvNLSPvmOc2Lm-486" value="" style="edgeStyle=none;orthogonalLoop=1;jettySize=auto;html=1;rounded=1;strokeColor=#457B9D;strokeWidth=1;align=center;verticalAlign=middle;fontFamily=Helvetica;fontSize=11;fontColor=#1D3557;labelBackgroundColor=default;endArrow=none;endFill=0;curved=0;fillColor=#A8DADC;entryX=0;entryY=0.5;entryDx=0;entryDy=0;entryPerimeter=0;exitX=1;exitY=0.5;exitDx=0;exitDy=0;exitPerimeter=0;" parent="SglfwwHXvNLSPvmOc2Lm-423" source="SglfwwHXvNLSPvmOc2Lm-450" target="SglfwwHXvNLSPvmOc2Lm-484" edge="1">
          <mxGeometry width="100" relative="1" as="geometry">
            <mxPoint x="33.5" y="76.75" as="sourcePoint" />
            <mxPoint x="3.5" y="128.75" as="targetPoint" />
            <Array as="points" />
          </mxGeometry>
        </mxCell>
        <mxCell id="SglfwwHXvNLSPvmOc2Lm-487" value="" style="edgeStyle=none;orthogonalLoop=1;jettySize=auto;html=1;rounded=1;strokeColor=#457B9D;strokeWidth=1;align=center;verticalAlign=middle;fontFamily=Helvetica;fontSize=11;fontColor=#1D3557;labelBackgroundColor=default;endArrow=none;endFill=0;curved=0;fillColor=#A8DADC;entryX=0;entryY=0.5;entryDx=0;entryDy=0;entryPerimeter=0;exitX=1;exitY=0.5;exitDx=0;exitDy=0;exitPerimeter=0;" parent="SglfwwHXvNLSPvmOc2Lm-423" source="SglfwwHXvNLSPvmOc2Lm-450" target="SglfwwHXvNLSPvmOc2Lm-485" edge="1">
          <mxGeometry width="100" relative="1" as="geometry">
            <mxPoint x="74.5" y="66.25" as="sourcePoint" />
            <mxPoint x="104.5" y="129.25" as="targetPoint" />
            <Array as="points" />
          </mxGeometry>
        </mxCell>
        <mxCell id="SglfwwHXvNLSPvmOc2Lm-488" value="" style="edgeStyle=none;orthogonalLoop=1;jettySize=auto;html=1;rounded=1;strokeColor=#457B9D;strokeWidth=1;align=center;verticalAlign=middle;fontFamily=Helvetica;fontSize=11;fontColor=#1D3557;labelBackgroundColor=default;endArrow=none;endFill=0;curved=0;fillColor=#A8DADC;entryX=0;entryY=0.5;entryDx=0;entryDy=0;entryPerimeter=0;exitX=1;exitY=0.5;exitDx=0;exitDy=0;exitPerimeter=0;" parent="SglfwwHXvNLSPvmOc2Lm-423" source="SglfwwHXvNLSPvmOc2Lm-451" target="SglfwwHXvNLSPvmOc2Lm-484" edge="1">
          <mxGeometry width="100" relative="1" as="geometry">
            <mxPoint x="84.5" y="87" as="sourcePoint" />
            <mxPoint x="114.5" y="150" as="targetPoint" />
            <Array as="points" />
          </mxGeometry>
        </mxCell>
        <mxCell id="SglfwwHXvNLSPvmOc2Lm-489" value="" style="edgeStyle=none;orthogonalLoop=1;jettySize=auto;html=1;rounded=1;strokeColor=#457B9D;strokeWidth=1;align=center;verticalAlign=middle;fontFamily=Helvetica;fontSize=11;fontColor=#1D3557;labelBackgroundColor=default;endArrow=none;endFill=0;curved=0;fillColor=#A8DADC;entryX=0;entryY=0.5;entryDx=0;entryDy=0;entryPerimeter=0;exitX=1;exitY=0.5;exitDx=0;exitDy=0;exitPerimeter=0;" parent="SglfwwHXvNLSPvmOc2Lm-423" source="SglfwwHXvNLSPvmOc2Lm-451" target="SglfwwHXvNLSPvmOc2Lm-485" edge="1">
          <mxGeometry width="100" relative="1" as="geometry">
            <mxPoint x="94.5" y="97" as="sourcePoint" />
            <mxPoint x="124.5" y="160" as="targetPoint" />
            <Array as="points" />
          </mxGeometry>
        </mxCell>
        <mxCell id="SglfwwHXvNLSPvmOc2Lm-490" value="" style="edgeStyle=none;orthogonalLoop=1;jettySize=auto;html=1;rounded=1;strokeColor=#457B9D;strokeWidth=1;align=center;verticalAlign=middle;fontFamily=Helvetica;fontSize=11;fontColor=#1D3557;labelBackgroundColor=default;endArrow=none;endFill=0;curved=0;fillColor=#A8DADC;entryX=0;entryY=0.5;entryDx=0;entryDy=0;entryPerimeter=0;exitX=1;exitY=0.5;exitDx=0;exitDy=0;exitPerimeter=0;" parent="SglfwwHXvNLSPvmOc2Lm-423" source="SglfwwHXvNLSPvmOc2Lm-452" target="SglfwwHXvNLSPvmOc2Lm-485" edge="1">
          <mxGeometry width="100" relative="1" as="geometry">
            <mxPoint x="104.5" y="107" as="sourcePoint" />
            <mxPoint x="134.5" y="170" as="targetPoint" />
            <Array as="points" />
          </mxGeometry>
        </mxCell>
        <mxCell id="SglfwwHXvNLSPvmOc2Lm-491" value="" style="edgeStyle=none;orthogonalLoop=1;jettySize=auto;html=1;rounded=1;strokeColor=#457B9D;strokeWidth=1;align=center;verticalAlign=middle;fontFamily=Helvetica;fontSize=11;fontColor=#1D3557;labelBackgroundColor=default;endArrow=none;endFill=0;curved=0;fillColor=#A8DADC;entryX=0;entryY=0.5;entryDx=0;entryDy=0;entryPerimeter=0;exitX=1;exitY=0.5;exitDx=0;exitDy=0;exitPerimeter=0;" parent="SglfwwHXvNLSPvmOc2Lm-423" source="SglfwwHXvNLSPvmOc2Lm-453" target="SglfwwHXvNLSPvmOc2Lm-485" edge="1">
          <mxGeometry width="100" relative="1" as="geometry">
            <mxPoint x="114.5" y="117" as="sourcePoint" />
            <mxPoint x="144.5" y="180" as="targetPoint" />
            <Array as="points" />
          </mxGeometry>
        </mxCell>
        <mxCell id="SglfwwHXvNLSPvmOc2Lm-492" value="" style="edgeStyle=none;orthogonalLoop=1;jettySize=auto;html=1;rounded=1;strokeColor=#457B9D;strokeWidth=1;align=center;verticalAlign=middle;fontFamily=Helvetica;fontSize=11;fontColor=#1D3557;labelBackgroundColor=default;endArrow=none;endFill=0;curved=0;fillColor=#A8DADC;entryX=0;entryY=0.5;entryDx=0;entryDy=0;entryPerimeter=0;exitX=1;exitY=0.5;exitDx=0;exitDy=0;exitPerimeter=0;" parent="SglfwwHXvNLSPvmOc2Lm-423" source="SglfwwHXvNLSPvmOc2Lm-452" target="SglfwwHXvNLSPvmOc2Lm-484" edge="1">
          <mxGeometry width="100" relative="1" as="geometry">
            <mxPoint x="124.5" y="127" as="sourcePoint" />
            <mxPoint x="154.5" y="190" as="targetPoint" />
            <Array as="points" />
          </mxGeometry>
        </mxCell>
        <mxCell id="SglfwwHXvNLSPvmOc2Lm-493" value="" style="edgeStyle=none;orthogonalLoop=1;jettySize=auto;html=1;rounded=1;strokeColor=#457B9D;strokeWidth=1;align=center;verticalAlign=middle;fontFamily=Helvetica;fontSize=11;fontColor=#1D3557;labelBackgroundColor=default;endArrow=none;endFill=0;curved=0;fillColor=#A8DADC;entryX=0;entryY=0.5;entryDx=0;entryDy=0;entryPerimeter=0;exitX=1;exitY=0.5;exitDx=0;exitDy=0;exitPerimeter=0;" parent="SglfwwHXvNLSPvmOc2Lm-423" source="SglfwwHXvNLSPvmOc2Lm-453" target="SglfwwHXvNLSPvmOc2Lm-484" edge="1">
          <mxGeometry width="100" relative="1" as="geometry">
            <mxPoint x="134.5" y="137" as="sourcePoint" />
            <mxPoint x="164.5" y="200" as="targetPoint" />
            <Array as="points" />
          </mxGeometry>
        </mxCell>
        <mxCell id="SglfwwHXvNLSPvmOc2Lm-494" value="" style="edgeStyle=none;orthogonalLoop=1;jettySize=auto;html=1;rounded=1;strokeColor=#457B9D;strokeWidth=1;align=center;verticalAlign=middle;fontFamily=Helvetica;fontSize=11;fontColor=#1D3557;labelBackgroundColor=default;endArrow=none;endFill=0;curved=0;fillColor=#A8DADC;entryX=1;entryY=0.5;entryDx=0;entryDy=0;entryPerimeter=0;exitX=0.005;exitY=0.571;exitDx=0;exitDy=0;exitPerimeter=0;" parent="SglfwwHXvNLSPvmOc2Lm-423" source="SglfwwHXvNLSPvmOc2Lm-484" target="SglfwwHXvNLSPvmOc2Lm-454" edge="1">
          <mxGeometry width="100" relative="1" as="geometry">
            <mxPoint x="144.5" y="147" as="sourcePoint" />
            <mxPoint x="174.5" y="210" as="targetPoint" />
            <Array as="points" />
          </mxGeometry>
        </mxCell>
        <mxCell id="SglfwwHXvNLSPvmOc2Lm-495" value="" style="edgeStyle=none;orthogonalLoop=1;jettySize=auto;html=1;rounded=1;strokeColor=#457B9D;strokeWidth=1;align=center;verticalAlign=middle;fontFamily=Helvetica;fontSize=11;fontColor=#1D3557;labelBackgroundColor=default;endArrow=none;endFill=0;curved=0;fillColor=#A8DADC;entryX=0;entryY=0.5;entryDx=0;entryDy=0;entryPerimeter=0;exitX=1;exitY=0.5;exitDx=0;exitDy=0;exitPerimeter=0;" parent="SglfwwHXvNLSPvmOc2Lm-423" source="SglfwwHXvNLSPvmOc2Lm-454" target="SglfwwHXvNLSPvmOc2Lm-485" edge="1">
          <mxGeometry width="100" relative="1" as="geometry">
            <mxPoint x="154.5" y="157" as="sourcePoint" />
            <mxPoint x="184.5" y="220" as="targetPoint" />
            <Array as="points" />
          </mxGeometry>
        </mxCell>
        <mxCell id="SglfwwHXvNLSPvmOc2Lm-498" style="edgeStyle=orthogonalEdgeStyle;curved=0;rounded=1;orthogonalLoop=1;jettySize=auto;html=1;strokeColor=#457B9D;strokeWidth=3;align=center;verticalAlign=middle;fontFamily=Helvetica;fontSize=11;fontColor=#1D3557;labelBackgroundColor=default;endArrow=blockThin;endFill=1;fillColor=#A8DADC;" parent="SglfwwHXvNLSPvmOc2Lm-423" edge="1">
          <mxGeometry relative="1" as="geometry">
            <mxPoint x="-18" y="166.85999999999996" as="sourcePoint" />
            <mxPoint x="19" y="167" as="targetPoint" />
          </mxGeometry>
        </mxCell>
        <mxCell id="SglfwwHXvNLSPvmOc2Lm-509" value="" style="group" parent="1" vertex="1" connectable="0">
          <mxGeometry x="581.9988583024527" y="1175" width="30.591141697547194" height="130" as="geometry" />
        </mxCell>
        <mxCell id="SglfwwHXvNLSPvmOc2Lm-510" value="" style="rounded=0;whiteSpace=wrap;html=1;strokeColor=#457B9D;fontFamily=Helvetica;fontSize=11;fontColor=#1D3557;labelBackgroundColor=default;fillColor=#457B9D;" parent="SglfwwHXvNLSPvmOc2Lm-509" vertex="1">
          <mxGeometry x="1" width="18.82477501323452" height="104" as="geometry" />
        </mxCell>
        <mxCell id="SglfwwHXvNLSPvmOc2Lm-511" value="" style="rounded=0;whiteSpace=wrap;html=1;strokeColor=#457B9D;fontFamily=Helvetica;fontSize=11;fontColor=#1D3557;labelBackgroundColor=default;fillColor=#A8DADC;" parent="SglfwwHXvNLSPvmOc2Lm-509" vertex="1">
          <mxGeometry x="5.707958355390872" y="13" width="18.82477501323452" height="104" as="geometry" />
        </mxCell>
        <mxCell id="SglfwwHXvNLSPvmOc2Lm-512" value="" style="rounded=0;whiteSpace=wrap;html=1;strokeColor=#457B9D;fontFamily=Helvetica;fontSize=11;fontColor=#1D3557;labelBackgroundColor=default;fillColor=#457B9D;" parent="SglfwwHXvNLSPvmOc2Lm-509" vertex="1">
          <mxGeometry x="11.766366684312663" y="26" width="18.82477501323452" height="104" as="geometry" />
        </mxCell>
        <mxCell id="SglfwwHXvNLSPvmOc2Lm-513" value="" style="group" parent="1" vertex="1" connectable="0">
          <mxGeometry x="598.5888583024528" y="1213" width="30.591141697547194" height="130" as="geometry" />
        </mxCell>
        <mxCell id="SglfwwHXvNLSPvmOc2Lm-514" value="" style="rounded=0;whiteSpace=wrap;html=1;strokeColor=#457B9D;fontFamily=Helvetica;fontSize=11;fontColor=#A8DADC;labelBackgroundColor=default;fillColor=#A8DADC;" parent="SglfwwHXvNLSPvmOc2Lm-513" vertex="1">
          <mxGeometry width="18.82477501323452" height="104" as="geometry" />
        </mxCell>
        <mxCell id="SglfwwHXvNLSPvmOc2Lm-515" value="" style="rounded=0;whiteSpace=wrap;html=1;strokeColor=#457B9D;fontFamily=Helvetica;fontSize=11;fontColor=#1D3557;labelBackgroundColor=default;fillColor=#457B9D;" parent="SglfwwHXvNLSPvmOc2Lm-513" vertex="1">
          <mxGeometry x="4.707958355390872" y="13" width="18.82477501323452" height="104" as="geometry" />
        </mxCell>
        <mxCell id="SglfwwHXvNLSPvmOc2Lm-516" value="" style="rounded=0;whiteSpace=wrap;html=1;strokeColor=#457B9D;fontFamily=Helvetica;fontSize=11;fontColor=#1D3557;labelBackgroundColor=default;fillColor=#A8DADC;" parent="SglfwwHXvNLSPvmOc2Lm-513" vertex="1">
          <mxGeometry x="8.766366684312663" y="26" width="18.82477501323452" height="104" as="geometry" />
        </mxCell>
      </root>
    </mxGraphModel>
  </diagram>
</mxfile>
